<?xml version="1.0" encoding="UTF-8" standalone="no"?><svg xmlns="http://www.w3.org/2000/svg" xmlns:xlink="http://www.w3.org/1999/xlink" contentScriptType="application/ecmascript" contentStyleType="text/css" height="151px" preserveAspectRatio="none" style="width:289px;height:151px;" version="1.1" viewBox="0 0 289 151" width="289px" zoomAndPan="magnify"><defs><filter height="300%" id="fiywy4y88ywvo" width="300%" x="-1" y="-1"><feGaussianBlur result="blurOut" stdDeviation="2.0"/><feColorMatrix in="blurOut" result="blurOut2" type="matrix" values="0 0 0 0 0 0 0 0 0 0 0 0 0 0 0 0 0 0 .4 0"/><feOffset dx="4.0" dy="4.0" in="blurOut2" result="blurOut3"/><feBlend in="SourceGraphic" in2="blurOut3" mode="normal"/></filter></defs><g><rect fill="#FEFECE" filter="url(#fiywy4y88ywvo)" height="132.8281" id="ClassMaster" style="stroke: #A80036; stroke-width: 1.5;" width="272" x="6" y="8"/><ellipse cx="99.75" cy="24" fill="#ADD1B2" rx="11" ry="11" style="stroke: #A80036; stroke-width: 1.0;"/><path d="M102.7188,29.6406 Q102.1406,29.9375 101.5,30.0859 Q100.8594,30.2344 100.1563,30.2344 Q97.6563,30.2344 96.3359,28.5859 Q95.0156,26.9375 95.0156,23.8125 Q95.0156,20.6875 96.3359,19.0313 Q97.6563,17.375 100.1563,17.375 Q100.8594,17.375 101.5078,17.5313 Q102.1563,17.6875 102.7188,17.9844 L102.7188,20.7031 Q102.0938,20.125 101.5,19.8516 Q100.9063,19.5781 100.2813,19.5781 Q98.9375,19.5781 98.25,20.6484 Q97.5625,21.7188 97.5625,23.8125 Q97.5625,25.9063 98.25,26.9766 Q98.9375,28.0469 100.2813,28.0469 Q100.9063,28.0469 101.5,27.7734 Q102.0938,27.5 102.7188,26.9219 L102.7188,29.6406 Z "/><text fill="#000000" font-family="sans-serif" font-size="12" lengthAdjust="spacingAndGlyphs" textLength="76" x="120.25" y="28.1543">ClassMaster</text><line style="stroke: #A80036; stroke-width: 1.5;" x1="7" x2="277" y1="40" y2="40"/><text fill="#000000" font-family="sans-serif" font-size="11" lengthAdjust="spacingAndGlyphs" textLength="89" x="26" y="54.2104">// 私有的静态实例</text><rect fill="#F24D5C" height="6" style="stroke: #C82930; stroke-width: 1.0;" width="6" x="14" y="60.8047"/><text fill="#000000" font-family="sans-serif" font-size="11" lengthAdjust="spacingAndGlyphs" text-decoration="underline" textLength="246" x="26" y="67.0151">ClassMaster instance = new ClassMaster()</text><line style="stroke: #A80036; stroke-width: 1.0;" x1="7" x2="277" y1="73.6094" y2="73.6094"/><text fill="#000000" font-family="sans-serif" font-size="11" lengthAdjust="spacingAndGlyphs" textLength="89" x="26" y="87.8198">// 私有的构造方法</text><rect fill="#F24D5C" height="6" style="stroke: #C82930; stroke-width: 1.0;" width="6" x="14" y="94.4141"/><text fill="#000000" font-family="sans-serif" font-size="11" lengthAdjust="spacingAndGlyphs" textLength="79" x="26" y="100.6245">ClassMaster()</text><line style="stroke: #A80036; stroke-width: 1.0;" x1="7" x2="277" y1="107.2188" y2="107.2188"/><text fill="#000000" font-family="sans-serif" font-size="11" lengthAdjust="spacingAndGlyphs" textLength="122" x="26" y="121.4292">// 公共的静态的访问方法</text><ellipse cx="17" cy="131.0234" fill="#84BE84" rx="3" ry="3" style="stroke: #038048; stroke-width: 1.0;"/><text fill="#000000" font-family="sans-serif" font-size="11" lengthAdjust="spacingAndGlyphs" text-decoration="underline" textLength="149" x="26" y="134.2339">ClassMaster getInstance()</text></g></svg>