<?xml version="1.0" encoding="UTF-8" standalone="no"?><svg xmlns="http://www.w3.org/2000/svg" xmlns:xlink="http://www.w3.org/1999/xlink" contentScriptType="application/ecmascript" contentStyleType="text/css" height="597px" preserveAspectRatio="none" style="width:638px;height:597px;" version="1.1" viewBox="0 0 638 597" width="638px" zoomAndPan="magnify"><defs><filter height="300%" id="fw0o8cepltdja" width="300%" x="-1" y="-1"><feGaussianBlur result="blurOut" stdDeviation="2.0"/><feColorMatrix in="blurOut" result="blurOut2" type="matrix" values="0 0 0 0 0 0 0 0 0 0 0 0 0 0 0 0 0 0 .4 0"/><feOffset dx="4.0" dy="4.0" in="blurOut2" result="blurOut3"/><feBlend in="SourceGraphic" in2="blurOut3" mode="normal"/></filter></defs><g><rect fill="#FFFFFF" filter="url(#fw0o8cepltdja)" height="312" style="stroke: #000000; stroke-width: 1.5;" width="339" x="14" y="274"/><text fill="#000000" font-family="sans-serif" font-size="14" font-weight="bold" lengthAdjust="spacingAndGlyphs" textLength="46" x="160.5" y="288.9951">工厂-1</text><rect fill="#FFFFFF" filter="url(#fw0o8cepltdja)" height="312" style="stroke: #000000; stroke-width: 1.5;" width="244" x="361" y="274"/><text fill="#000000" font-family="sans-serif" font-size="14" font-weight="bold" lengthAdjust="spacingAndGlyphs" textLength="46" x="460" y="288.9951">工厂-2</text><rect fill="#FEFECE" filter="url(#fw0o8cepltdja)" height="60.8047" id="FruitFactory" style="stroke: #A80036; stroke-width: 1.5;" width="220" x="108" y="301"/><ellipse cx="176.75" cy="317" fill="#ADD1B2" rx="11" ry="11" style="stroke: #A80036; stroke-width: 1.0;"/><path d="M179.7188,322.6406 Q179.1406,322.9375 178.5,323.0859 Q177.8594,323.2344 177.1563,323.2344 Q174.6563,323.2344 173.3359,321.5859 Q172.0156,319.9375 172.0156,316.8125 Q172.0156,313.6875 173.3359,312.0313 Q174.6563,310.375 177.1563,310.375 Q177.8594,310.375 178.5078,310.5313 Q179.1563,310.6875 179.7188,310.9844 L179.7188,313.7031 Q179.0938,313.125 178.5,312.8516 Q177.9063,312.5781 177.2813,312.5781 Q175.9375,312.5781 175.25,313.6484 Q174.5625,314.7188 174.5625,316.8125 Q174.5625,318.9063 175.25,319.9766 Q175.9375,321.0469 177.2813,321.0469 Q177.9063,321.0469 178.5,320.7734 Q179.0938,320.5 179.7188,319.9219 L179.7188,322.6406 Z "/><text fill="#000000" font-family="sans-serif" font-size="12" lengthAdjust="spacingAndGlyphs" textLength="74" x="197.25" y="321.1543">FruitFactory</text><line style="stroke: #A80036; stroke-width: 1.5;" x1="109" x2="327" y1="333" y2="333"/><line style="stroke: #A80036; stroke-width: 1.5;" x1="109" x2="327" y1="341" y2="341"/><ellipse cx="119" cy="352" fill="#84BE84" rx="3" ry="3" style="stroke: #038048; stroke-width: 1.0;"/><text fill="#000000" font-family="sans-serif" font-size="11" lengthAdjust="spacingAndGlyphs" textLength="194" x="128" y="355.2104">Fruit getFruit(Customer customer)</text><rect fill="#FEFECE" filter="url(#fw0o8cepltdja)" height="48" id="Fruit" style="stroke: #A80036; stroke-width: 1.5;" width="60" x="176" y="422"/><ellipse cx="191" cy="438" fill="#B4A7E5" rx="11" ry="11" style="stroke: #A80036; stroke-width: 1.0;"/><path d="M186.9219,433.7656 L186.9219,431.6094 L194.3125,431.6094 L194.3125,433.7656 L191.8438,433.7656 L191.8438,441.8438 L194.3125,441.8438 L194.3125,444 L186.9219,444 L186.9219,441.8438 L189.3906,441.8438 L189.3906,433.7656 L186.9219,433.7656 Z "/><text fill="#000000" font-family="sans-serif" font-size="12" font-style="italic" lengthAdjust="spacingAndGlyphs" textLength="28" x="205" y="442.1543">Fruit</text><line style="stroke: #A80036; stroke-width: 1.5;" x1="177" x2="235" y1="454" y2="454"/><line style="stroke: #A80036; stroke-width: 1.5;" x1="177" x2="235" y1="462" y2="462"/><rect fill="#FEFECE" filter="url(#fw0o8cepltdja)" height="48" id="Watermelon" style="stroke: #A80036; stroke-width: 1.5;" width="107" x="21.5" y="530"/><ellipse cx="36.5" cy="546" fill="#ADD1B2" rx="11" ry="11" style="stroke: #A80036; stroke-width: 1.0;"/><path d="M39.4688,551.6406 Q38.8906,551.9375 38.25,552.0859 Q37.6094,552.2344 36.9063,552.2344 Q34.4063,552.2344 33.0859,550.5859 Q31.7656,548.9375 31.7656,545.8125 Q31.7656,542.6875 33.0859,541.0313 Q34.4063,539.375 36.9063,539.375 Q37.6094,539.375 38.2578,539.5313 Q38.9063,539.6875 39.4688,539.9844 L39.4688,542.7031 Q38.8438,542.125 38.25,541.8516 Q37.6563,541.5781 37.0313,541.5781 Q35.6875,541.5781 35,542.6484 Q34.3125,543.7188 34.3125,545.8125 Q34.3125,547.9063 35,548.9766 Q35.6875,550.0469 37.0313,550.0469 Q37.6563,550.0469 38.25,549.7734 Q38.8438,549.5 39.4688,548.9219 L39.4688,551.6406 Z "/><text fill="#000000" font-family="sans-serif" font-size="12" lengthAdjust="spacingAndGlyphs" textLength="75" x="50.5" y="550.1543">Watermelon</text><line style="stroke: #A80036; stroke-width: 1.5;" x1="22.5" x2="127.5" y1="562" y2="562"/><line style="stroke: #A80036; stroke-width: 1.5;" x1="22.5" x2="127.5" y1="570" y2="570"/><rect fill="#FEFECE" filter="url(#fw0o8cepltdja)" height="48" id="Lemon" style="stroke: #A80036; stroke-width: 1.5;" width="73" x="163.5" y="530"/><ellipse cx="178.5" cy="546" fill="#ADD1B2" rx="11" ry="11" style="stroke: #A80036; stroke-width: 1.0;"/><path d="M181.4688,551.6406 Q180.8906,551.9375 180.25,552.0859 Q179.6094,552.2344 178.9063,552.2344 Q176.4063,552.2344 175.0859,550.5859 Q173.7656,548.9375 173.7656,545.8125 Q173.7656,542.6875 175.0859,541.0313 Q176.4063,539.375 178.9063,539.375 Q179.6094,539.375 180.2578,539.5313 Q180.9063,539.6875 181.4688,539.9844 L181.4688,542.7031 Q180.8438,542.125 180.25,541.8516 Q179.6563,541.5781 179.0313,541.5781 Q177.6875,541.5781 177,542.6484 Q176.3125,543.7188 176.3125,545.8125 Q176.3125,547.9063 177,548.9766 Q177.6875,550.0469 179.0313,550.0469 Q179.6563,550.0469 180.25,549.7734 Q180.8438,549.5 181.4688,548.9219 L181.4688,551.6406 Z "/><text fill="#000000" font-family="sans-serif" font-size="12" lengthAdjust="spacingAndGlyphs" textLength="41" x="192.5" y="550.1543">Lemon</text><line style="stroke: #A80036; stroke-width: 1.5;" x1="164.5" x2="235.5" y1="562" y2="562"/><line style="stroke: #A80036; stroke-width: 1.5;" x1="164.5" x2="235.5" y1="570" y2="570"/><rect fill="#FEFECE" filter="url(#fw0o8cepltdja)" height="48" id="Durian" style="stroke: #A80036; stroke-width: 1.5;" width="73" x="271.5" y="530"/><ellipse cx="286.5" cy="546" fill="#ADD1B2" rx="11" ry="11" style="stroke: #A80036; stroke-width: 1.0;"/><path d="M289.4688,551.6406 Q288.8906,551.9375 288.25,552.0859 Q287.6094,552.2344 286.9063,552.2344 Q284.4063,552.2344 283.0859,550.5859 Q281.7656,548.9375 281.7656,545.8125 Q281.7656,542.6875 283.0859,541.0313 Q284.4063,539.375 286.9063,539.375 Q287.6094,539.375 288.2578,539.5313 Q288.9063,539.6875 289.4688,539.9844 L289.4688,542.7031 Q288.8438,542.125 288.25,541.8516 Q287.6563,541.5781 287.0313,541.5781 Q285.6875,541.5781 285,542.6484 Q284.3125,543.7188 284.3125,545.8125 Q284.3125,547.9063 285,548.9766 Q285.6875,550.0469 287.0313,550.0469 Q287.6563,550.0469 288.25,549.7734 Q288.8438,549.5 289.4688,548.9219 L289.4688,551.6406 Z "/><text fill="#000000" font-family="sans-serif" font-size="12" lengthAdjust="spacingAndGlyphs" textLength="41" x="300.5" y="550.1543">Durian</text><line style="stroke: #A80036; stroke-width: 1.5;" x1="272.5" x2="343.5" y1="562" y2="562"/><line style="stroke: #A80036; stroke-width: 1.5;" x1="272.5" x2="343.5" y1="570" y2="570"/><rect fill="#FEFECE" filter="url(#fw0o8cepltdja)" height="60.8047" id="DrinkFactory" style="stroke: #A80036; stroke-width: 1.5;" width="228" x="369" y="301"/><ellipse cx="439.75" cy="317" fill="#ADD1B2" rx="11" ry="11" style="stroke: #A80036; stroke-width: 1.0;"/><path d="M442.7188,322.6406 Q442.1406,322.9375 441.5,323.0859 Q440.8594,323.2344 440.1563,323.2344 Q437.6563,323.2344 436.3359,321.5859 Q435.0156,319.9375 435.0156,316.8125 Q435.0156,313.6875 436.3359,312.0313 Q437.6563,310.375 440.1563,310.375 Q440.8594,310.375 441.5078,310.5313 Q442.1563,310.6875 442.7188,310.9844 L442.7188,313.7031 Q442.0938,313.125 441.5,312.8516 Q440.9063,312.5781 440.2813,312.5781 Q438.9375,312.5781 438.25,313.6484 Q437.5625,314.7188 437.5625,316.8125 Q437.5625,318.9063 438.25,319.9766 Q438.9375,321.0469 440.2813,321.0469 Q440.9063,321.0469 441.5,320.7734 Q442.0938,320.5 442.7188,319.9219 L442.7188,322.6406 Z "/><text fill="#000000" font-family="sans-serif" font-size="12" lengthAdjust="spacingAndGlyphs" textLength="78" x="460.25" y="321.1543">DrinkFactory</text><line style="stroke: #A80036; stroke-width: 1.5;" x1="370" x2="596" y1="333" y2="333"/><line style="stroke: #A80036; stroke-width: 1.5;" x1="370" x2="596" y1="341" y2="341"/><ellipse cx="380" cy="352" fill="#84BE84" rx="3" ry="3" style="stroke: #038048; stroke-width: 1.0;"/><text fill="#000000" font-family="sans-serif" font-size="11" lengthAdjust="spacingAndGlyphs" textLength="202" x="389" y="355.2104">Drink getDrink(Customer customer)</text><rect fill="#FEFECE" filter="url(#fw0o8cepltdja)" height="48" id="Drink" style="stroke: #A80036; stroke-width: 1.5;" width="64" x="451" y="422"/><ellipse cx="466" cy="438" fill="#B4A7E5" rx="11" ry="11" style="stroke: #A80036; stroke-width: 1.0;"/><path d="M461.9219,433.7656 L461.9219,431.6094 L469.3125,431.6094 L469.3125,433.7656 L466.8438,433.7656 L466.8438,441.8438 L469.3125,441.8438 L469.3125,444 L461.9219,444 L461.9219,441.8438 L464.3906,441.8438 L464.3906,433.7656 L461.9219,433.7656 Z "/><text fill="#000000" font-family="sans-serif" font-size="12" font-style="italic" lengthAdjust="spacingAndGlyphs" textLength="32" x="480" y="442.1543">Drink</text><line style="stroke: #A80036; stroke-width: 1.5;" x1="452" x2="514" y1="454" y2="454"/><line style="stroke: #A80036; stroke-width: 1.5;" x1="452" x2="514" y1="462" y2="462"/><rect fill="#FEFECE" filter="url(#fw0o8cepltdja)" height="48" id="Water" style="stroke: #A80036; stroke-width: 1.5;" width="69" x="406.5" y="530"/><ellipse cx="421.5" cy="546" fill="#ADD1B2" rx="11" ry="11" style="stroke: #A80036; stroke-width: 1.0;"/><path d="M424.4688,551.6406 Q423.8906,551.9375 423.25,552.0859 Q422.6094,552.2344 421.9063,552.2344 Q419.4063,552.2344 418.0859,550.5859 Q416.7656,548.9375 416.7656,545.8125 Q416.7656,542.6875 418.0859,541.0313 Q419.4063,539.375 421.9063,539.375 Q422.6094,539.375 423.2578,539.5313 Q423.9063,539.6875 424.4688,539.9844 L424.4688,542.7031 Q423.8438,542.125 423.25,541.8516 Q422.6563,541.5781 422.0313,541.5781 Q420.6875,541.5781 420,542.6484 Q419.3125,543.7188 419.3125,545.8125 Q419.3125,547.9063 420,548.9766 Q420.6875,550.0469 422.0313,550.0469 Q422.6563,550.0469 423.25,549.7734 Q423.8438,549.5 424.4688,548.9219 L424.4688,551.6406 Z "/><text fill="#000000" font-family="sans-serif" font-size="12" lengthAdjust="spacingAndGlyphs" textLength="37" x="435.5" y="550.1543">Water</text><line style="stroke: #A80036; stroke-width: 1.5;" x1="407.5" x2="474.5" y1="562" y2="562"/><line style="stroke: #A80036; stroke-width: 1.5;" x1="407.5" x2="474.5" y1="570" y2="570"/><rect fill="#FEFECE" filter="url(#fw0o8cepltdja)" height="48" id="Cola" style="stroke: #A80036; stroke-width: 1.5;" width="59" x="510.5" y="530"/><ellipse cx="525.5" cy="546" fill="#ADD1B2" rx="11" ry="11" style="stroke: #A80036; stroke-width: 1.0;"/><path d="M528.4688,551.6406 Q527.8906,551.9375 527.25,552.0859 Q526.6094,552.2344 525.9063,552.2344 Q523.4063,552.2344 522.0859,550.5859 Q520.7656,548.9375 520.7656,545.8125 Q520.7656,542.6875 522.0859,541.0313 Q523.4063,539.375 525.9063,539.375 Q526.6094,539.375 527.2578,539.5313 Q527.9063,539.6875 528.4688,539.9844 L528.4688,542.7031 Q527.8438,542.125 527.25,541.8516 Q526.6563,541.5781 526.0313,541.5781 Q524.6875,541.5781 524,542.6484 Q523.3125,543.7188 523.3125,545.8125 Q523.3125,547.9063 524,548.9766 Q524.6875,550.0469 526.0313,550.0469 Q526.6563,550.0469 527.25,549.7734 Q527.8438,549.5 528.4688,548.9219 L528.4688,551.6406 Z "/><text fill="#000000" font-family="sans-serif" font-size="12" lengthAdjust="spacingAndGlyphs" textLength="27" x="539.5" y="550.1543">Cola</text><line style="stroke: #A80036; stroke-width: 1.5;" x1="511.5" x2="568.5" y1="562" y2="562"/><line style="stroke: #A80036; stroke-width: 1.5;" x1="511.5" x2="568.5" y1="570" y2="570"/><rect fill="#FEFECE" filter="url(#fw0o8cepltdja)" height="73.6094" id="SnacksFactory" style="stroke: #A80036; stroke-width: 1.5;" width="228" x="245" y="148"/><ellipse cx="309.25" cy="164" fill="#B4A7E5" rx="11" ry="11" style="stroke: #A80036; stroke-width: 1.0;"/><path d="M305.1719,159.7656 L305.1719,157.6094 L312.5625,157.6094 L312.5625,159.7656 L310.0938,159.7656 L310.0938,167.8438 L312.5625,167.8438 L312.5625,170 L305.1719,170 L305.1719,167.8438 L307.6406,167.8438 L307.6406,159.7656 L305.1719,159.7656 Z "/><text fill="#000000" font-family="sans-serif" font-size="12" font-style="italic" lengthAdjust="spacingAndGlyphs" textLength="91" x="329.75" y="168.1543">SnacksFactory</text><line style="stroke: #A80036; stroke-width: 1.5;" x1="246" x2="472" y1="180" y2="180"/><line style="stroke: #A80036; stroke-width: 1.5;" x1="246" x2="472" y1="188" y2="188"/><ellipse cx="256" cy="199" fill="#84BE84" rx="3" ry="3" style="stroke: #038048; stroke-width: 1.0;"/><text fill="#000000" font-family="sans-serif" font-size="11" lengthAdjust="spacingAndGlyphs" textLength="194" x="265" y="202.2104">Fruit getFruit(Customer customer)</text><ellipse cx="256" cy="211.8047" fill="#84BE84" rx="3" ry="3" style="stroke: #038048; stroke-width: 1.0;"/><text fill="#000000" font-family="sans-serif" font-size="11" lengthAdjust="spacingAndGlyphs" textLength="202" x="265" y="215.0151">Drink getDrink(Customer customer)</text><rect fill="#FEFECE" filter="url(#fw0o8cepltdja)" height="60.8047" id="SnacksFactoryBuilder" style="stroke: #A80036; stroke-width: 1.5;" width="266" x="226" y="8"/><ellipse cx="287.75" cy="24" fill="#ADD1B2" rx="11" ry="11" style="stroke: #A80036; stroke-width: 1.0;"/><path d="M290.7188,29.6406 Q290.1406,29.9375 289.5,30.0859 Q288.8594,30.2344 288.1563,30.2344 Q285.6563,30.2344 284.3359,28.5859 Q283.0156,26.9375 283.0156,23.8125 Q283.0156,20.6875 284.3359,19.0313 Q285.6563,17.375 288.1563,17.375 Q288.8594,17.375 289.5078,17.5313 Q290.1563,17.6875 290.7188,17.9844 L290.7188,20.7031 Q290.0938,20.125 289.5,19.8516 Q288.9063,19.5781 288.2813,19.5781 Q286.9375,19.5781 286.25,20.6484 Q285.5625,21.7188 285.5625,23.8125 Q285.5625,25.9063 286.25,26.9766 Q286.9375,28.0469 288.2813,28.0469 Q288.9063,28.0469 289.5,27.7734 Q290.0938,27.5 290.7188,26.9219 L290.7188,29.6406 Z "/><text fill="#000000" font-family="sans-serif" font-size="12" lengthAdjust="spacingAndGlyphs" textLength="134" x="308.25" y="28.1543">SnacksFactoryBuilder</text><line style="stroke: #A80036; stroke-width: 1.5;" x1="227" x2="491" y1="40" y2="40"/><line style="stroke: #A80036; stroke-width: 1.5;" x1="227" x2="491" y1="48" y2="48"/><ellipse cx="237" cy="59" fill="#84BE84" rx="3" ry="3" style="stroke: #038048; stroke-width: 1.0;"/><text fill="#000000" font-family="sans-serif" font-size="11" lengthAdjust="spacingAndGlyphs" textLength="240" x="246" y="62.2104">SnacksFactory buildFactory(String choice);</text><rect fill="#FEFECE" filter="url(#fw0o8cepltdja)" height="112.0234" id="Customer" style="stroke: #A80036; stroke-width: 1.5;" width="119" x="508.5" y="129"/><ellipse cx="535.65" cy="145" fill="#ADD1B2" rx="11" ry="11" style="stroke: #A80036; stroke-width: 1.0;"/><path d="M538.6188,150.6406 Q538.0406,150.9375 537.4,151.0859 Q536.7594,151.2344 536.0563,151.2344 Q533.5563,151.2344 532.2359,149.5859 Q530.9156,147.9375 530.9156,144.8125 Q530.9156,141.6875 532.2359,140.0313 Q533.5563,138.375 536.0563,138.375 Q536.7594,138.375 537.4078,138.5313 Q538.0563,138.6875 538.6188,138.9844 L538.6188,141.7031 Q537.9938,141.125 537.4,140.8516 Q536.8063,140.5781 536.1813,140.5781 Q534.8375,140.5781 534.15,141.6484 Q533.4625,142.7188 533.4625,144.8125 Q533.4625,146.9063 534.15,147.9766 Q534.8375,149.0469 536.1813,149.0469 Q536.8063,149.0469 537.4,148.7734 Q537.9938,148.5 538.6188,147.9219 L538.6188,150.6406 Z "/><text fill="#000000" font-family="sans-serif" font-size="12" lengthAdjust="spacingAndGlyphs" textLength="60" x="552.35" y="149.1543">Customer</text><line style="stroke: #A80036; stroke-width: 1.5;" x1="509.5" x2="626.5" y1="161" y2="161"/><rect fill="none" height="6" style="stroke: #C82930; stroke-width: 1.0;" width="6" x="516.5" y="169"/><text fill="#000000" font-family="sans-serif" font-size="11" lengthAdjust="spacingAndGlyphs" textLength="70" x="528.5" y="175.2104">String name</text><text fill="#000000" font-family="sans-serif" font-size="11" lengthAdjust="spacingAndGlyphs" textLength="34" x="528.5" y="188.0151">// 口味</text><rect fill="none" height="6" style="stroke: #C82930; stroke-width: 1.0;" width="6" x="516.5" y="194.6094"/><text fill="#000000" font-family="sans-serif" font-size="11" lengthAdjust="spacingAndGlyphs" textLength="70" x="528.5" y="200.8198">String flavor</text><text fill="#000000" font-family="sans-serif" font-size="11" lengthAdjust="spacingAndGlyphs" textLength="45" x="528.5" y="213.6245">// 想喝的</text><rect fill="none" height="6" style="stroke: #C82930; stroke-width: 1.0;" width="6" x="516.5" y="220.2188"/><text fill="#000000" font-family="sans-serif" font-size="11" lengthAdjust="spacingAndGlyphs" textLength="93" x="528.5" y="226.4292">String drinkWant</text><line style="stroke: #A80036; stroke-width: 1.5;" x1="509.5" x2="626.5" y1="233.0234" y2="233.0234"/><path d="M203.5394,490.2911 C202.7879,503.8171 201.9898,518.1835 201.342,529.8436 " fill="none" id="Fruit&lt;-Lemon" style="stroke: #A80036; stroke-width: 1.0; stroke-dasharray: 7.0,7.0;"/><polygon fill="none" points="196.5548,489.8182,204.6535,470.2373,210.5332,490.5948,196.5548,489.8182" style="stroke: #A80036; stroke-width: 1.0;"/><path d="M242.8602,485.0285 C257.0076,500.0081 272.7313,516.6566 285.1856,529.8436 " fill="none" id="Fruit&lt;-Durian" style="stroke: #A80036; stroke-width: 1.0; stroke-dasharray: 7.0,7.0;"/><polygon fill="none" points="237.5342,489.584,228.8908,470.2373,247.7124,479.9712,237.5342,489.584" style="stroke: #A80036; stroke-width: 1.0;"/><path d="M160.9438,483.1456 C142.1982,498.6 120.9696,516.1014 104.3008,529.8436 " fill="none" id="Fruit&lt;-Watermelon" style="stroke: #A80036; stroke-width: 1.0; stroke-dasharray: 7.0,7.0;"/><polygon fill="none" points="156.7164,477.5586,176.601,470.2373,165.6221,488.3609,156.7164,477.5586" style="stroke: #A80036; stroke-width: 1.0;"/><path d="M214.7842,362.1839 C213.01,379.1131 210.8184,400.0245 209.0681,416.7248 " fill="none" id="FruitFactory-&gt;Fruit" style="stroke: #A80036; stroke-width: 1.0; stroke-dasharray: 7.0,7.0;"/><polygon fill="#A80036" points="208.5401,421.7634,213.4566,413.2295,209.0614,416.7906,205.5002,412.3954,208.5401,421.7634" style="stroke: #A80036; stroke-width: 1.0;"/><path d="M466.1508,489.3264 C460.7822,503.1315 455.0366,517.9059 450.3942,529.8436 " fill="none" id="Drink&lt;-Water" style="stroke: #A80036; stroke-width: 1.0; stroke-dasharray: 7.0,7.0;"/><polygon fill="none" points="459.8014,486.3403,473.5744,470.2373,472.8494,491.4146,459.8014,486.3403" style="stroke: #A80036; stroke-width: 1.0;"/><path d="M505.3592,488.3649 C512.7892,502.4428 520.8038,517.6283 527.2508,529.8436 " fill="none" id="Drink&lt;-Cola" style="stroke: #A80036; stroke-width: 1.0; stroke-dasharray: 7.0,7.0;"/><polygon fill="none" points="498.9364,491.1923,495.7919,470.2373,511.3178,484.6577,498.9364,491.1923" style="stroke: #A80036; stroke-width: 1.0;"/><path d="M483,362.1839 C483,379.1131 483,400.0245 483,416.7248 " fill="none" id="DrinkFactory-&gt;Drink" style="stroke: #A80036; stroke-width: 1.0; stroke-dasharray: 7.0,7.0;"/><polygon fill="#A80036" points="483,421.7634,487,412.7634,483,416.7634,479,412.7634,483,421.7634" style="stroke: #A80036; stroke-width: 1.0;"/><path d="M309.0216,236.928 C288.5136,258.2359 265.4677,282.1807 247.6966,300.6451 " fill="none" id="SnacksFactory&lt;-FruitFactory" style="stroke: #A80036; stroke-width: 1.0; stroke-dasharray: 7.0,7.0;"/><polygon fill="none" points="304.1423,231.9031,323.0549,222.3472,314.2294,241.6114,304.1423,231.9031" style="stroke: #A80036; stroke-width: 1.0;"/><path d="M403.7382,237.856 C421.5745,258.9288 441.4818,282.4483 456.8839,300.6451 " fill="none" id="SnacksFactory&lt;-DrinkFactory" style="stroke: #A80036; stroke-width: 1.0; stroke-dasharray: 7.0,7.0;"/><polygon fill="none" points="398.1895,242.1354,390.6113,222.3472,408.8755,233.0905,398.1895,242.1354" style="stroke: #A80036; stroke-width: 1.0;"/><path d="M359,69.2112 C359,90.5063 359,119.1417 359,142.6073 " fill="none" id="SnacksFactoryBuilder-&gt;SnacksFactory" style="stroke: #A80036; stroke-width: 1.0; stroke-dasharray: 7.0,7.0;"/><polygon fill="#A80036" points="359,147.8373,363,138.8373,359,142.8373,355,138.8373,359,147.8373" style="stroke: #A80036; stroke-width: 1.0;"/><path d="M473.2969,185 C483.2726,185 493.2483,185 503.224,185 " fill="none" id="SnacksFactory-&gt;Customer" style="stroke: #A80036; stroke-width: 1.0; stroke-dasharray: 7.0,7.0;"/><polygon fill="#A80036" points="508.4406,185,499.4406,181,503.4406,185,499.4406,189,508.4406,185" style="stroke: #A80036; stroke-width: 1.0;"/></g></svg>