<?xml version="1.0" encoding="UTF-8" standalone="no"?><svg xmlns="http://www.w3.org/2000/svg" xmlns:xlink="http://www.w3.org/1999/xlink" contentScriptType="application/ecmascript" contentStyleType="text/css" height="455px" preserveAspectRatio="none" style="width:394px;height:455px;" version="1.1" viewBox="0 0 394 455" width="394px" zoomAndPan="magnify"><defs><filter height="300%" id="fq82pka2mtysw" width="300%" x="-1" y="-1"><feGaussianBlur result="blurOut" stdDeviation="2.0"/><feColorMatrix in="blurOut" result="blurOut2" type="matrix" values="0 0 0 0 0 0 0 0 0 0 0 0 0 0 0 0 0 0 .4 0"/><feOffset dx="4.0" dy="4.0" in="blurOut2" result="blurOut3"/><feBlend in="SourceGraphic" in2="blurOut3" mode="normal"/></filter></defs><g><rect fill="#FEFECE" filter="url(#fq82pka2mtysw)" height="60.8047" id="CarShop" style="stroke: #A80036; stroke-width: 1.5;" width="161" x="222.5" y="8"/><ellipse cx="272.25" cy="24" fill="#ADD1B2" rx="11" ry="11" style="stroke: #A80036; stroke-width: 1.0;"/><path d="M275.2188,29.6406 Q274.6406,29.9375 274,30.0859 Q273.3594,30.2344 272.6563,30.2344 Q270.1563,30.2344 268.8359,28.5859 Q267.5156,26.9375 267.5156,23.8125 Q267.5156,20.6875 268.8359,19.0313 Q270.1563,17.375 272.6563,17.375 Q273.3594,17.375 274.0078,17.5313 Q274.6563,17.6875 275.2188,17.9844 L275.2188,20.7031 Q274.5938,20.125 274,19.8516 Q273.4063,19.5781 272.7813,19.5781 Q271.4375,19.5781 270.75,20.6484 Q270.0625,21.7188 270.0625,23.8125 Q270.0625,25.9063 270.75,26.9766 Q271.4375,28.0469 272.7813,28.0469 Q273.4063,28.0469 274,27.7734 Q274.5938,27.5 275.2188,26.9219 L275.2188,29.6406 Z "/><text fill="#000000" font-family="sans-serif" font-size="12" lengthAdjust="spacingAndGlyphs" textLength="53" x="292.75" y="28.1543">CarShop</text><line style="stroke: #A80036; stroke-width: 1.5;" x1="223.5" x2="382.5" y1="40" y2="40"/><line style="stroke: #A80036; stroke-width: 1.5;" x1="223.5" x2="382.5" y1="48" y2="48"/><ellipse cx="233.5" cy="59" fill="#84BE84" rx="3" ry="3" style="stroke: #038048; stroke-width: 1.0;"/><text fill="#000000" font-family="sans-serif" font-size="11" lengthAdjust="spacingAndGlyphs" text-decoration="underline" textLength="135" x="242.5" y="62.2104">void main(String[] args)</text><rect fill="#FEFECE" filter="url(#fq82pka2mtysw)" height="60.8047" id="CarFactory" style="stroke: #A80036; stroke-width: 1.5;" width="180" x="7" y="8"/><ellipse cx="59.25" cy="24" fill="#ADD1B2" rx="11" ry="11" style="stroke: #A80036; stroke-width: 1.0;"/><path d="M62.2188,29.6406 Q61.6406,29.9375 61,30.0859 Q60.3594,30.2344 59.6563,30.2344 Q57.1563,30.2344 55.8359,28.5859 Q54.5156,26.9375 54.5156,23.8125 Q54.5156,20.6875 55.8359,19.0313 Q57.1563,17.375 59.6563,17.375 Q60.3594,17.375 61.0078,17.5313 Q61.6563,17.6875 62.2188,17.9844 L62.2188,20.7031 Q61.5938,20.125 61,19.8516 Q60.4063,19.5781 59.7813,19.5781 Q58.4375,19.5781 57.75,20.6484 Q57.0625,21.7188 57.0625,23.8125 Q57.0625,25.9063 57.75,26.9766 Q58.4375,28.0469 59.7813,28.0469 Q60.4063,28.0469 61,27.7734 Q61.5938,27.5 62.2188,26.9219 L62.2188,29.6406 Z "/><text fill="#000000" font-family="sans-serif" font-size="12" lengthAdjust="spacingAndGlyphs" textLength="67" x="79.75" y="28.1543">CarFactory</text><line style="stroke: #A80036; stroke-width: 1.5;" x1="8" x2="186" y1="40" y2="40"/><line style="stroke: #A80036; stroke-width: 1.5;" x1="8" x2="186" y1="48" y2="48"/><ellipse cx="18" cy="59" fill="#84BE84" rx="3" ry="3" style="stroke: #038048; stroke-width: 1.0;"/><text fill="#000000" font-family="sans-serif" font-size="11" lengthAdjust="spacingAndGlyphs" text-decoration="underline" textLength="154" x="27" y="62.2104">Car makeCar(String brand)</text><rect fill="#FEFECE" filter="url(#fq82pka2mtysw)" height="60.8047" id="Car" style="stroke: #A80036; stroke-width: 1.5;" width="124" x="35" y="129"/><ellipse cx="82.25" cy="145" fill="#B4A7E5" rx="11" ry="11" style="stroke: #A80036; stroke-width: 1.0;"/><path d="M78.1719,140.7656 L78.1719,138.6094 L85.5625,138.6094 L85.5625,140.7656 L83.0938,140.7656 L83.0938,148.8438 L85.5625,148.8438 L85.5625,151 L78.1719,151 L78.1719,148.8438 L80.6406,148.8438 L80.6406,140.7656 L78.1719,140.7656 Z "/><text fill="#000000" font-family="sans-serif" font-size="12" font-style="italic" lengthAdjust="spacingAndGlyphs" textLength="21" x="102.75" y="149.1543">Car</text><line style="stroke: #A80036; stroke-width: 1.5;" x1="36" x2="158" y1="161" y2="161"/><line style="stroke: #A80036; stroke-width: 1.5;" x1="36" x2="158" y1="169" y2="169"/><ellipse cx="46" cy="180" fill="#84BE84" rx="3" ry="3" style="stroke: #038048; stroke-width: 1.0;"/><text fill="#000000" font-family="sans-serif" font-size="11" lengthAdjust="spacingAndGlyphs" textLength="98" x="55" y="183.2104">String getBrand()</text><rect fill="#FEFECE" filter="url(#fq82pka2mtysw)" height="86.4141" id="AbstractCar" style="stroke: #A80036; stroke-width: 1.5;" width="157" x="18.5" y="250"/><ellipse cx="56.45" cy="266" fill="#A9DCDF" rx="11" ry="11" style="stroke: #A80036; stroke-width: 1.0;"/><path d="M56.5594,261.3438 L55.4031,266.4219 L57.7313,266.4219 L56.5594,261.3438 Z M55.075,259.1094 L58.0594,259.1094 L61.4188,271.5 L58.9656,271.5 L58.2,268.4375 L54.9188,268.4375 L54.1688,271.5 L51.7313,271.5 L55.075,259.1094 Z "/><text fill="#000000" font-family="sans-serif" font-size="12" font-style="italic" lengthAdjust="spacingAndGlyphs" textLength="74" x="75.55" y="270.1543">AbstractCar</text><line style="stroke: #A80036; stroke-width: 1.5;" x1="19.5" x2="174.5" y1="282" y2="282"/><rect fill="none" height="6" style="stroke: #C82930; stroke-width: 1.0;" width="6" x="26.5" y="290"/><text fill="#000000" font-family="sans-serif" font-size="11" lengthAdjust="spacingAndGlyphs" textLength="71" x="38.5" y="296.2104">String brand</text><line style="stroke: #A80036; stroke-width: 1.5;" x1="19.5" x2="174.5" y1="302.8047" y2="302.8047"/><ellipse cx="29.5" cy="313.8047" fill="#84BE84" rx="3" ry="3" style="stroke: #038048; stroke-width: 1.0;"/><text fill="#000000" font-family="sans-serif" font-size="11" lengthAdjust="spacingAndGlyphs" textLength="60" x="38.5" y="317.0151">getBrand()</text><ellipse cx="29.5" cy="326.6094" fill="#84BE84" rx="3" ry="3" style="stroke: #038048; stroke-width: 1.0;"/><text fill="#000000" font-family="sans-serif" font-size="11" lengthAdjust="spacingAndGlyphs" textLength="131" x="38.5" y="329.8198">setBrand(String brand)</text><rect fill="#FEFECE" filter="url(#fq82pka2mtysw)" height="48" id="Elysee" style="stroke: #A80036; stroke-width: 1.5;" width="72" x="6" y="396"/><ellipse cx="21" cy="412" fill="#ADD1B2" rx="11" ry="11" style="stroke: #A80036; stroke-width: 1.0;"/><path d="M23.9688,417.6406 Q23.3906,417.9375 22.75,418.0859 Q22.1094,418.2344 21.4063,418.2344 Q18.9063,418.2344 17.5859,416.5859 Q16.2656,414.9375 16.2656,411.8125 Q16.2656,408.6875 17.5859,407.0313 Q18.9063,405.375 21.4063,405.375 Q22.1094,405.375 22.7578,405.5313 Q23.4063,405.6875 23.9688,405.9844 L23.9688,408.7031 Q23.3438,408.125 22.75,407.8516 Q22.1563,407.5781 21.5313,407.5781 Q20.1875,407.5781 19.5,408.6484 Q18.8125,409.7188 18.8125,411.8125 Q18.8125,413.9063 19.5,414.9766 Q20.1875,416.0469 21.5313,416.0469 Q22.1563,416.0469 22.75,415.7734 Q23.3438,415.5 23.9688,414.9219 L23.9688,417.6406 Z "/><text fill="#000000" font-family="sans-serif" font-size="12" lengthAdjust="spacingAndGlyphs" textLength="40" x="35" y="416.1543">Elysee</text><line style="stroke: #A80036; stroke-width: 1.5;" x1="7" x2="77" y1="428" y2="428"/><line style="stroke: #A80036; stroke-width: 1.5;" x1="7" x2="77" y1="436" y2="436"/><rect fill="#FEFECE" filter="url(#fq82pka2mtysw)" height="48" id="FuKang" style="stroke: #A80036; stroke-width: 1.5;" width="78" x="113" y="396"/><ellipse cx="128" cy="412" fill="#ADD1B2" rx="11" ry="11" style="stroke: #A80036; stroke-width: 1.0;"/><path d="M130.9688,417.6406 Q130.3906,417.9375 129.75,418.0859 Q129.1094,418.2344 128.4063,418.2344 Q125.9063,418.2344 124.5859,416.5859 Q123.2656,414.9375 123.2656,411.8125 Q123.2656,408.6875 124.5859,407.0313 Q125.9063,405.375 128.4063,405.375 Q129.1094,405.375 129.7578,405.5313 Q130.4063,405.6875 130.9688,405.9844 L130.9688,408.7031 Q130.3438,408.125 129.75,407.8516 Q129.1563,407.5781 128.5313,407.5781 Q127.1875,407.5781 126.5,408.6484 Q125.8125,409.7188 125.8125,411.8125 Q125.8125,413.9063 126.5,414.9766 Q127.1875,416.0469 128.5313,416.0469 Q129.1563,416.0469 129.75,415.7734 Q130.3438,415.5 130.9688,414.9219 L130.9688,417.6406 Z "/><text fill="#000000" font-family="sans-serif" font-size="12" lengthAdjust="spacingAndGlyphs" textLength="46" x="142" y="416.1543">FuKang</text><line style="stroke: #A80036; stroke-width: 1.5;" x1="114" x2="190" y1="428" y2="428"/><line style="stroke: #A80036; stroke-width: 1.5;" x1="114" x2="190" y1="436" y2="436"/><path d="M97,210.2557 C97,223.3131 97,237.2382 97,249.8681 " fill="none" id="Car&lt;-AbstractCar" style="stroke: #A80036; stroke-width: 1.0; stroke-dasharray: 7.0,7.0;"/><polygon fill="none" points="90.0001,210.1276,97,190.1276,104.0001,210.1276,90.0001,210.1276" style="stroke: #A80036; stroke-width: 1.0;"/><path d="M70.1315,355.0417 C63.872,369.4955 57.5689,384.0501 52.5202,395.7079 " fill="none" id="AbstractCar&lt;-Elysee" style="stroke: #A80036; stroke-width: 1.0;"/><polygon fill="none" points="63.8543,351.922,78.2259,336.351,76.7013,357.4857,63.8543,351.922" style="stroke: #A80036; stroke-width: 1.0;"/><path d="M123.8685,355.0417 C130.128,369.4955 136.4311,384.0501 141.4798,395.7079 " fill="none" id="AbstractCar&lt;-FuKang" style="stroke: #A80036; stroke-width: 1.0;"/><polygon fill="none" points="117.2987,357.4857,115.7741,336.351,130.1457,351.922,117.2987,357.4857" style="stroke: #A80036; stroke-width: 1.0;"/><path d="M97,69.0334 C97,85.6565 97,106.3175 97,123.6964 " fill="none" id="CarFactory-&gt;Car" style="stroke: #A80036; stroke-width: 1.0; stroke-dasharray: 7.0,7.0;"/><polygon fill="#A80036" points="97,128.9764,101,119.9764,97,123.9764,93,119.9764,97,128.9764" style="stroke: #A80036; stroke-width: 1.0;"/><path d="M192.3657,38.5 C202.3873,38.5 212.409,38.5 222.4307,38.5 " fill="none" id="CarFactory&lt;-CarShop" style="stroke: #A80036; stroke-width: 1.0; stroke-dasharray: 7.0,7.0;"/><polygon fill="#A80036" points="187.125,38.5,196.125,42.5,192.125,38.5,196.125,34.5,187.125,38.5" style="stroke: #A80036; stroke-width: 1.0;"/></g></svg>